<svg width="16" height="16" viewBox="0 0 16 16" fill="none" xmlns="http://www.w3.org/2000/svg">
<g clip-path="url(#clip0_2514_6025)">
<path d="M8.62771 1.53192C8.80222 1.30064 8.77416 0.810073 8.74932 0.377331C8.74837 0.358678 8.74733 0.340436 8.74629 0.321909C8.50168 0.298553 8.25408 0.285645 8.00348 0.285645C7.04322 0.285645 6.1244 0.462548 5.27637 0.783246C5.88131 1.07396 6.81771 1.57434 7.85855 2.31367C8.21368 2.00806 8.48152 1.72593 8.62771 1.53192Z" fill="white"/>
<path d="M12.5367 5.93379C12.1564 5.97674 11.8358 6.03914 11.5615 6.12666C12.8725 8.41558 13.3836 11.3074 13.5087 13.4023C14.8075 12.079 15.6323 10.2901 15.7103 8.30849C14.8154 7.2085 13.6299 5.80978 12.5367 5.93379Z" fill="white"/>
<path d="M4.74311 3.95805C5.66423 3.76638 6.52962 3.30277 7.21963 2.8134C5.78016 1.82199 4.57955 1.30747 4.34073 1.20953C2.84732 2.01685 1.65227 3.30314 0.957031 4.86169C1.86071 4.50164 2.8394 4.31845 3.80068 4.13997C4.11165 4.08221 4.43311 4.02253 4.74311 3.95805Z" fill="white"/>
<path d="M10.0747 4.18232C10.1569 4.26495 10.2389 4.34899 10.3204 4.43462C10.6209 4.75008 10.8935 5.09511 11.1435 5.46015C11.5077 5.32267 11.9363 5.22518 12.4495 5.16717C13.6585 5.03041 14.7336 5.98815 15.6563 7.04256C15.4584 5.44412 14.7729 3.99743 13.7514 2.85651C13.1938 2.9237 12.5722 3.03754 11.9386 3.2266C11.523 3.35073 10.8612 3.688 10.0747 4.18232Z" fill="white"/>
<path d="M9.05991 8.16622C9.37631 7.09454 9.74281 6.32201 10.4529 5.82055C10.2398 5.51463 10.0104 5.22751 9.76203 4.96668C9.64711 4.84599 9.5309 4.72943 9.41419 4.61493C6.56533 6.55405 2.66295 10.1161 2.30811 13.2024C3.49262 14.4984 5.11369 15.3872 6.93858 15.6393C7.60305 14.3164 8.22844 11.6271 8.60018 10.0276C8.77879 9.25939 8.93293 8.59606 9.05991 8.16622Z" fill="white"/>
<path d="M5.82956 6.46679C6.82287 5.55147 7.87185 4.73068 8.83129 4.07101C8.51148 3.78806 8.19068 3.52723 7.87576 3.28802C7.07886 3.88707 6.0355 4.47708 4.89978 4.71329C4.58173 4.77947 4.25605 4.83997 3.94119 4.89843C2.72802 5.12371 1.56346 5.3419 0.584101 5.88833C0.393374 6.55968 0.289062 7.26748 0.289062 7.99996C0.289062 9.63855 0.801561 11.1568 1.67269 12.4061C2.23705 10.1716 4.17279 7.99346 5.82956 6.46679Z" fill="white"/>
<path d="M9.49601 3.63038C10.4138 3.04528 11.205 2.64073 11.7183 2.4875C12.1793 2.34982 12.6315 2.24955 13.0598 2.17642C12.0702 1.31653 10.8606 0.703661 9.5253 0.436523C9.5549 0.975281 9.56781 1.56678 9.24371 1.99652C9.08972 2.2006 8.82921 2.48049 8.49023 2.78414C8.8222 3.04254 9.15956 3.32432 9.49601 3.63038Z" fill="white"/>
<path d="M9.7996 8.38464C9.67916 8.79267 9.52723 9.4459 9.35146 10.2022C8.83246 12.4354 8.33584 14.4336 7.75586 15.7079C7.8382 15.7105 7.92052 15.7142 8.00349 15.7142C9.80134 15.7142 11.4541 15.0975 12.7657 14.0665C12.7139 11.8742 12.1883 8.77326 10.8645 6.47137C10.351 6.85299 10.0747 7.45332 9.7996 8.38464Z" fill="white"/>
</g>
<defs>
<clipPath id="clip0_2514_6025">
<rect width="15.4286" height="15.4286" fill="white" transform="translate(0.285156 0.285645)"/>
</clipPath>
</defs>
</svg>
