<svg width="12" height="12" viewBox="0 0 12 12" fill="none" xmlns="http://www.w3.org/2000/svg">
<g clip-path="url(#clip0_2514_6072)">
<path d="M1.58398 3.58466L2.1894 10.8931C2.23278 11.4201 2.68172 11.8334 3.21078 11.8334H8.78902C9.31807 11.8334 9.76701 11.4201 9.8104 10.8931L10.4158 3.58466H1.58398ZM4.29058 10.4662C4.11166 10.4662 3.96114 10.327 3.94979 10.1457L3.60799 4.6314C3.5963 4.44282 3.73949 4.2806 3.92775 4.26891C4.12301 4.25522 4.27823 4.40009 4.29024 4.58867L4.63204 10.103C4.64414 10.2983 4.48962 10.4662 4.29058 10.4662ZM6.34168 10.1244C6.34168 10.3133 6.18881 10.4662 5.99989 10.4662C5.81096 10.4662 5.65809 10.3133 5.65809 10.1244V4.61005C5.65809 4.42112 5.81096 4.26825 5.99989 4.26825C6.18881 4.26825 6.34168 4.42112 6.34168 4.61005V10.1244ZM8.39178 4.63142L8.04998 10.1457C8.03875 10.3252 7.8892 10.4747 7.6875 10.4655C7.49923 10.4538 7.35604 10.2916 7.36773 10.103L7.70953 4.5887C7.72122 4.40011 7.88645 4.26292 8.07202 4.26893C8.26028 4.28062 8.40347 4.44284 8.39178 4.63142Z" fill="white"/>
<path d="M10.4434 1.53387H8.39258V1.19208C8.39258 0.626655 7.93261 0.166687 7.36719 0.166687H4.63281C4.06739 0.166687 3.60742 0.626655 3.60742 1.19208V1.53387H1.55664C1.17909 1.53387 0.873047 1.83992 0.873047 2.21747C0.873047 2.59497 1.17909 2.90106 1.55664 2.90106C4.7004 2.90106 7.29972 2.90106 10.4434 2.90106C10.8209 2.90106 11.127 2.59497 11.127 2.21747C11.127 1.83992 10.8209 1.53387 10.4434 1.53387ZM7.70898 1.53387H4.29102V1.19208C4.29102 1.0035 4.44423 0.850281 4.63281 0.850281H7.36719C7.55577 0.850281 7.70898 1.0035 7.70898 1.19208V1.53387Z" fill="white"/>
</g>
<defs>
<clipPath id="clip0_2514_6072">
<rect width="11.6667" height="11.6667" fill="white" transform="translate(0.166504 0.166687)"/>
</clipPath>
</defs>
</svg>
