<svg width="11" height="11" viewBox="0 0 11 11" fill="none" xmlns="http://www.w3.org/2000/svg">
<g clip-path="url(#clip0_2521_2742)">
<path d="M10.7478 5.06278C10.6521 4.95 8.36642 2.30463 5.44451 2.30463C2.52249 2.30463 0.236909 4.95 0.141045 5.06289C-0.0470335 5.28403 -0.0470335 5.60491 0.141156 5.82627C0.236909 5.93905 2.52249 8.58431 5.44451 8.58431C8.36642 8.58431 10.6521 5.93883 10.7479 5.82605C10.936 5.60491 10.936 5.28403 10.7478 5.06278ZM6.33703 3.89373C6.53351 3.78648 6.8075 3.90954 6.94892 4.1685C7.09034 4.42756 7.04567 4.72455 6.84919 4.8318C6.65282 4.93917 6.37872 4.81599 6.23719 4.55704C6.09588 4.29797 6.14044 4.00098 6.33703 3.89373ZM5.44451 7.6259C3.4034 7.6259 1.6857 6.05835 1.09117 5.44447C1.49265 5.02983 2.40673 4.18077 3.58639 3.67304C3.3563 4.0231 3.2214 4.44138 3.2214 4.89162C3.2214 6.11939 4.21664 7.11462 5.4444 7.11462C6.67217 7.11462 7.66751 6.11939 7.66751 4.89162C7.66751 4.44138 7.53273 4.0231 7.30263 3.67304C8.4823 4.18088 9.39627 5.02983 9.79775 5.44447C9.20321 6.05868 7.48552 7.6259 5.44451 7.6259Z" fill="white"/>
</g>
<defs>
<clipPath id="clip0_2521_2742">
<rect width="10.8889" height="10.8889" fill="white"/>
</clipPath>
</defs>
</svg>
