<svg width="16" height="16" viewBox="0 0 16 16" fill="none" xmlns="http://www.w3.org/2000/svg">
<g clip-path="url(#clip0_2514_6009)">
<path d="M15.3133 13.4037L9.26342 7.35386L2.19521 0.285645H1.64282L1.53003 0.572248C1.23234 1.32873 1.10514 2.10245 1.16225 2.80966C1.22734 3.61581 1.53359 4.31374 2.04794 4.8281L7.56577 10.3459L8.29356 9.61813L13.3948 15.3223C13.9022 15.8297 14.7757 15.8599 15.3133 15.3223C15.8422 14.7933 15.8422 13.9327 15.3133 13.4037Z" fill="white"/>
<path d="M5.00826 9.06714L0.686722 13.3887C0.157811 13.9176 0.157811 14.7782 0.686722 15.3072C1.18918 15.8096 2.05839 15.854 2.6052 15.3072L6.92677 10.9856L5.00826 9.06714Z" fill="white"/>
<path d="M15.0576 2.85372L12.6062 5.30512L11.9667 4.66562L14.4181 2.21419L13.7786 1.57469L11.3272 4.02609L10.6877 3.38658L13.1391 0.935188L12.4997 0.295715L9.30215 3.49323C8.91098 3.8844 8.67742 4.40378 8.64439 4.95578C8.63604 5.09563 8.60434 5.23319 8.55176 5.36403L10.6289 7.44113C10.7597 7.38849 10.8973 7.35682 11.0371 7.34847C11.5891 7.31554 12.1085 7.08191 12.4997 6.69074L15.6972 3.49326L15.0576 2.85372Z" fill="white"/>
</g>
<defs>
<clipPath id="clip0_2514_6009">
<rect width="15.4286" height="15.4286" fill="white" transform="translate(0.285156 0.285645)"/>
</clipPath>
</defs>
</svg>
