<svg width="16" height="16" viewBox="0 0 16 16" fill="none" xmlns="http://www.w3.org/2000/svg">
<g clip-path="url(#clip0_2514_5970)">
<path d="M8.00067 2.58666C8.66898 2.58666 9.24623 2.16054 9.4536 1.53369C9.05797 1.6426 8.5537 1.70832 8.00067 1.70832C7.44769 1.70832 6.94343 1.6426 6.54785 1.53369C6.75511 2.16049 7.33232 2.58666 8.00067 2.58666Z" fill="white"/>
<path d="M15.6945 3.35855C15.6628 3.26948 15.5968 3.19624 15.5107 3.15635L12.5692 1.79844C11.9435 1.58648 11.3061 1.41905 10.6624 1.29668C10.6397 1.29224 10.6172 1.2901 10.5949 1.2901C10.4356 1.2901 10.2929 1.4001 10.2574 1.56142C10.0224 2.59617 9.10642 3.37087 7.99941 3.37087C6.89247 3.37087 5.97644 2.59622 5.74146 1.56142C5.70554 1.4001 5.56312 1.2901 5.40388 1.2901C5.38164 1.2901 5.35909 1.29224 5.33643 1.29668C4.69282 1.41905 4.05537 1.58648 3.42868 1.79844L0.488213 3.1563C0.401654 3.19618 0.335142 3.26943 0.304914 3.3585C0.273642 3.44861 0.27928 3.54587 0.323343 3.63086L1.60033 6.15101C1.66011 6.27061 1.7817 6.3424 1.91034 6.3424C1.94354 6.3424 1.97721 6.33759 2.01042 6.32762L3.42873 5.90725V14.3632C3.42873 14.5553 3.5854 14.7119 3.77794 14.7119H12.221C12.4131 14.7119 12.5693 14.5552 12.5693 14.3632V5.90735L13.9886 6.32773C14.0218 6.3377 14.0554 6.3425 14.0885 6.3425C14.2169 6.3425 14.338 6.27072 14.3987 6.15111L15.6761 3.63096C15.7191 3.54592 15.7253 3.44866 15.6945 3.35855Z" fill="white"/>
</g>
<defs>
<clipPath id="clip0_2514_5970">
<rect width="15.4286" height="15.4286" fill="white" transform="translate(0.285156 0.285645)"/>
</clipPath>
</defs>
</svg>
