<svg width="16" height="10" viewBox="0 0 16 10" fill="none" xmlns="http://www.w3.org/2000/svg">
<path d="M15.5673 6.98748L15.4878 6.87054L15.4219 6.9957C14.9924 7.81183 13.5642 8.29956 12.4317 8.29956C10.9896 8.29956 3.86955 8.08283 2.94263 8.03005C2.75939 8.01918 2.568 8.01412 2.34027 8.01412C2.19901 8.01412 2.06784 8.01589 1.94099 8.01755C1.8308 8.01901 1.72684 8.02041 1.62916 8.02041C1.32436 8.02041 1.07374 7.93886 0.890774 7.87929C0.772204 7.8407 0.67853 7.81024 0.600956 7.81024C0.541145 7.81024 0.492677 7.82864 0.456913 7.86499C0.410076 7.9125 0.389052 7.98631 0.390716 8.09723C0.404914 9.05683 0.912986 9.13101 1.62919 9.13101C1.72755 9.13101 1.83227 9.12961 1.94326 9.12815C2.06954 9.12646 2.20013 9.12472 2.34027 9.12472C2.56457 9.12472 2.7528 9.12968 2.93278 9.14035C3.86082 9.1932 10.9881 9.41013 12.4317 9.41013C13.1644 9.41013 13.9744 9.21554 14.5983 8.88972C15.3164 8.51472 15.7118 8.01012 15.7118 7.46879C15.7118 7.29045 15.6632 7.12847 15.5673 6.98748Z" fill="white"/>
<path d="M1.53479 7.55866C1.63244 7.55866 1.7363 7.55727 1.84645 7.55581C1.97174 7.55411 2.10135 7.55238 2.2404 7.55238C2.46338 7.55238 2.65008 7.55734 2.82825 7.568C3.74899 7.62085 10.8209 7.83775 12.2535 7.83775C12.9807 7.83775 13.7846 7.64317 14.4039 7.31721C15.1164 6.94218 15.5088 6.4376 15.5088 5.89641C15.5088 5.1115 14.6133 4.85802 13.6652 4.5896C13.1483 4.44328 12.6137 4.29197 12.162 4.04984C11.9586 3.94054 11.6484 3.78213 11.2704 3.59282C11.271 3.58188 11.272 3.57101 11.272 3.55994C11.272 3.23677 11.0091 2.97388 10.686 2.97388C10.5409 2.97388 10.4083 3.02714 10.3058 3.11477C10.1689 3.04745 10.0286 2.97857 9.88577 2.90864C9.873 2.59671 9.61596 2.3467 9.30094 2.3467C9.17371 2.3467 9.05616 2.3879 8.96001 2.45705C8.83196 2.39479 8.70371 2.3325 8.57584 2.27045C8.57855 2.24762 8.58035 2.22453 8.58035 2.20099C8.58035 1.87786 8.31747 1.61497 7.99433 1.61497C7.83215 1.61497 7.68522 1.68124 7.57902 1.78802C6.32984 1.18481 5.30572 0.694877 5.21394 0.650995C5.15804 0.612853 5.09571 0.592712 5.03315 0.592712C4.93228 0.592712 4.83531 0.641757 4.77366 0.724087L4.08364 1.64941C3.99119 1.77464 3.95489 1.90085 3.97571 2.02465C4.01694 2.26994 4.26997 2.4437 4.47328 2.58329C4.55422 2.63889 4.67459 2.72153 4.69392 2.76164C4.69364 2.76191 4.69334 2.76222 4.69307 2.76249C4.58061 2.87243 4.21967 3.03607 3.68609 3.03607C3.37766 3.03607 3.05266 2.97715 2.7462 2.86557C2.3712 2.72904 2.21625 2.35441 2.09177 2.05338C1.98767 1.8016 1.89773 1.5842 1.69792 1.5842C1.54634 1.5842 1.37095 1.72019 1.11058 2.04C0.225567 3.1649 0.266936 4.88367 0.297164 6.13865C0.300391 6.27304 0.303515 6.40221 0.305316 6.52479C0.319377 7.48452 0.823747 7.55866 1.53479 7.55866ZM8.95236 4.07158C8.95236 4.07158 9.06587 3.95922 9.20618 4.00124C9.32828 4.03778 9.61701 4.11556 9.79366 4.15944C9.9447 4.19697 9.80833 4.31571 9.80833 4.31571L7.5151 6.41474C7.51326 6.41607 7.41999 6.50115 7.27847 6.50115C7.04999 6.50115 6.60706 6.49942 6.42657 6.49942C6.27655 6.49942 6.40103 6.37283 6.40103 6.37283C6.40103 6.37283 8.95206 4.07158 8.95236 4.07158ZM7.20626 3.57614C7.20687 3.5756 7.38325 3.40163 7.59562 3.46885C7.70329 3.50291 7.95599 3.56565 8.11715 3.61075C8.25497 3.6493 8.10883 3.79147 8.10876 3.79161L5.27005 6.36526C5.26808 6.36672 5.20243 6.48536 4.98119 6.48536C4.73151 6.48536 4.2551 6.49677 4.06017 6.49677C3.94999 6.49677 4.04795 6.37827 4.04785 6.37833L7.20626 3.57614Z" fill="white"/>
</svg>
