<svg width="16" height="16" viewBox="0 0 16 16" fill="none" xmlns="http://www.w3.org/2000/svg">
<g clip-path="url(#clip0_2514_6041)">
<path d="M6.51255 3.57129H2.33732C1.76658 3.57129 1.30225 4.03562 1.30225 4.60636V5.91083C1.89167 6.10194 2.31918 6.65598 2.31918 7.30826V8.59645H7.54762V6.33671V4.60636C7.54762 4.03562 7.08329 3.57129 6.51255 3.57129Z" fill="white"/>
<path d="M13.662 3.57129H9.48673C8.91599 3.57129 8.45166 4.03562 8.45166 4.60636V6.33671V8.59645H13.6801V7.30829C13.6801 6.65601 14.1076 6.10197 14.697 5.91083V4.60636C14.697 4.03562 14.2327 3.57129 13.662 3.57129Z" fill="white"/>
<path d="M15.1488 6.74335C14.8373 6.74335 14.5839 6.99677 14.5839 7.30824V9.50045H1.41497V7.30824C1.41497 6.99677 1.16154 6.74335 0.850077 6.74335C0.538583 6.74335 0.285156 6.99677 0.285156 7.30824V11.3082H1.18951V12.4286H2.09352V11.3082H13.9054V12.4286H14.8094V11.3082H15.7137V7.30824C15.7137 6.99677 15.4603 6.74335 15.1488 6.74335Z" fill="white"/>
</g>
<defs>
<clipPath id="clip0_2514_6041">
<rect width="15.4286" height="15.4286" fill="white" transform="translate(0.285156 0.285645)"/>
</clipPath>
</defs>
</svg>
