<svg width="16" height="16" viewBox="0 0 16 16" fill="none" xmlns="http://www.w3.org/2000/svg">
<g clip-path="url(#clip0_2514_5979)">
<path d="M2.99707 13.0021H13.0015V6.67401H2.99707V13.0021ZM6.64328 8.03004C6.64328 7.86319 6.73509 7.71002 6.88209 7.63143C7.02908 7.55284 7.20696 7.56124 7.34603 7.65394L10.0581 9.46197C10.1839 9.54584 10.2594 9.6871 10.2594 9.83804C10.2594 9.98898 10.1839 10.1303 10.0581 10.2141L7.34603 12.0222C7.20588 12.1156 7.02703 12.1224 6.88209 12.0447C6.73509 11.9661 6.64328 11.813 6.64328 11.6461V8.03004Z" fill="white"/>
<path d="M7.54736 8.87384V10.8011L8.99256 9.83746L7.54736 8.87384Z" fill="white"/>
<path d="M14.3577 3.96198H1.64118C0.89344 3.96198 0.285156 4.57026 0.285156 5.318V14.3582C0.285156 15.1059 0.89344 15.7142 1.64118 15.7142H14.3577C15.1054 15.7142 15.7137 15.1059 15.7137 14.3582V5.318C15.7137 4.57026 15.1054 3.96198 14.3577 3.96198ZM13.9057 13.4542C13.9057 13.704 13.7035 13.9062 13.4537 13.9062H2.5452C2.29536 13.9062 2.09319 13.704 2.09319 13.4542V6.22202C2.09319 5.97218 2.29536 5.77001 2.5452 5.77001H13.4537C13.7035 5.77001 13.9057 5.97218 13.9057 6.22202V13.4542Z" fill="white"/>
<path d="M11.295 0.418087L8.71533 2.9977H9.99367L11.9341 1.05723C12.1107 0.880673 12.1107 0.594612 11.9341 0.418057C11.7576 0.241502 11.4715 0.241502 11.295 0.418087Z" fill="white"/>
<path d="M4.06357 0.418083C3.88701 0.594638 3.88701 0.880699 4.06357 1.05725L6.00401 2.9977H7.28236L4.70271 0.418083C4.52615 0.241498 4.24012 0.241498 4.06357 0.418083Z" fill="white"/>
</g>
<defs>
<clipPath id="clip0_2514_5979">
<rect width="15.4286" height="15.4286" fill="white" transform="translate(0.285156 0.285645)"/>
</clipPath>
</defs>
</svg>
